<?xml version="1.0" encoding="UTF-8" standalone="no"?>
<!-- Created with Inkscape (http://www.inkscape.org/) -->

<svg
   xmlns:dc="http://purl.org/dc/elements/1.1/"
   xmlns:cc="http://creativecommons.org/ns#"
   xmlns:rdf="http://www.w3.org/1999/02/22-rdf-syntax-ns#"
   xmlns:svg="http://www.w3.org/2000/svg"
   xmlns="http://www.w3.org/2000/svg"
   xmlns:xlink="http://www.w3.org/1999/xlink"
   xmlns:sodipodi="http://sodipodi.sourceforge.net/DTD/sodipodi-0.dtd"
   xmlns:inkscape="http://www.inkscape.org/namespaces/inkscape"
   width="200"
   height="200"
   viewBox="0 0 52.916665 52.916668"
   version="1.1"
   id="svg8"
   inkscape:version="0.92.5 (2060ec1f9f, 2020-04-08)"
   sodipodi:docname="sound_off_icon.svg"
   inkscape:export-filename="/home/sasaj/Desktop/Programming/Practice/azhan_app/assets/icons/sound_off_icon.png"
   inkscape:export-xdpi="96"
   inkscape:export-ydpi="96">
  <defs
     id="defs2">
    <linearGradient
       inkscape:collect="always"
       id="linearGradient920">
      <stop
         style="stop-color:#000000;stop-opacity:1"
         offset="0"
         id="stop916" />
      <stop
         id="stop924"
         offset="0.46638289"
         style="stop-color:#716262;stop-opacity:1" />
      <stop
         style="stop-color:#000000;stop-opacity:1"
         offset="1"
         id="stop918" />
    </linearGradient>
    <filter
       inkscape:collect="always"
       style="color-interpolation-filters:sRGB"
       id="filter893"
       x="-0.038122076"
       width="1.0762442"
       y="-0.030036985"
       height="1.060074">
      <feGaussianBlur
         inkscape:collect="always"
         stdDeviation="2.8734888"
         id="feGaussianBlur895" />
    </filter>
    <linearGradient
       inkscape:collect="always"
       xlink:href="#linearGradient920"
       id="linearGradient922"
       x1="49"
       y1="-64"
       x2="163"
       y2="184"
       gradientUnits="userSpaceOnUse"
       gradientTransform="matrix(0.15979463,0,0,0.15979463,4.730782,263.81226)" />
  </defs>
  <sodipodi:namedview
     id="base"
     pagecolor="#ffffff"
     bordercolor="#666666"
     borderopacity="1.0"
     inkscape:pageopacity="0.0"
     inkscape:pageshadow="2"
     inkscape:zoom="1.4142136"
     inkscape:cx="-61.837615"
     inkscape:cy="86.713952"
     inkscape:document-units="mm"
     inkscape:current-layer="layer1"
     showgrid="false"
     inkscape:window-width="1360"
     inkscape:window-height="706"
     inkscape:window-x="0"
     inkscape:window-y="0"
     inkscape:window-maximized="1"
     units="px"
     inkscape:snap-page="true"
     inkscape:snap-bbox="true"
     inkscape:snap-global="false" />
  <metadata
     id="metadata5">
    <rdf:RDF>
      <cc:Work
         rdf:about="">
        <dc:format>image/svg+xml</dc:format>
        <dc:type
           rdf:resource="http://purl.org/dc/dcmitype/StillImage" />
        <dc:title />
      </cc:Work>
    </rdf:RDF>
  </metadata>
  <g
     inkscape:label="Layer 1"
     inkscape:groupmode="layer"
     id="layer1"
     transform="translate(0,-244.08332)">
    <path
       inkscape:connector-curvature="0"
       style="opacity:1;fill:url(#linearGradient922);fill-opacity:1;stroke:none;stroke-width:0.14707476;stroke-opacity:1"
       d="m 19.345124,251.31988 -5.822828,5.22297 a 19.726267,12.501304 61.614515 0 0 -4.5057722,10.26556 19.726267,12.501304 61.614515 0 0 14.4536112,23.79972 19.726267,12.501304 61.614515 0 0 8.701942,0.59799 l 0.0016,0.003 0.01873,-0.0106 a 19.726267,12.501304 61.614515 0 0 1.590143,-0.91289 l 6.432632,-3.69275 -2.435307,-4.11565 a 19.726267,12.501304 61.614515 0 0 0.143878,-2.19343 19.726267,12.501304 61.614515 0 0 -14.453613,-23.79941 19.726267,12.501304 61.614515 0 0 -1.397578,-0.55491 z"
       id="ellipse911" />
    <ellipse
       cy="255.14607"
       cx="32.770729"
       id="circle860"
       style="opacity:1;fill:#888888;fill-opacity:1;stroke:none;stroke-width:0.16062428;stroke-opacity:1"
       transform="matrix(0.90635716,0.42251237,0,1,0,0)"
       rx="16.580568"
       ry="17.739723" />
    <ellipse
       style="opacity:1;fill:#1a1a1a;fill-opacity:1;stroke:none;stroke-width:0.15448576;stroke-opacity:1"
       id="path858"
       cx="32.770729"
       cy="255.14607"
       transform="matrix(0.90635716,0.42251237,0,1,0,0)"
       rx="15.946918"
       ry="17.061771" />
    <ellipse
       cy="255.14607"
       cx="32.770729"
       id="circle862"
       style="opacity:1;fill:#a09292;fill-opacity:1;stroke:none;stroke-width:0.10742388;stroke-opacity:1"
       transform="matrix(0.90635716,0.42251237,0,1,0,0)"
       rx="11.088915"
       ry="11.864145" />
    <path
       style="opacity:1;fill:#1a1a1a;fill-opacity:0.63333333;stroke:none;stroke-width:0.92039865;stroke-opacity:1;filter:url(#filter893)"
       d="m 133.48047,-47.408203 a 85.841052,54.400819 61.614517 0 0 -27.52344,11.966797 85.841051,54.400818 61.614517 0 1 12.67383,-2.066406 85.841051,54.400818 61.614517 0 1 22.79102,5.578124 85.841051,54.400818 61.614517 0 1 62.89648,103.566407 85.841051,54.400818 61.614517 0 1 -12.58594,38.539061 85.841052,54.400819 61.614517 0 0 27.43555,-48.439452 85.841052,54.400819 61.614517 0 0 -62.89649,-103.566406 85.841052,54.400819 61.614517 0 0 -22.79101,-5.578125 z"
       transform="matrix(0.15979463,0,0,0.15979463,5.6484252,263.0738)"
       id="ellipse872"
       inkscape:connector-curvature="0" />
    <path
       style="opacity:1;fill:#f9f9f9;fill-opacity:0.63333333;stroke:none;stroke-width:1.20023692;stroke-opacity:1;filter:url(#filter893)"
       d="m 93.503906,7.4785156 a 85.841052,54.400819 61.614517 0 0 62.767574,99.1835944 85.841052,54.400819 61.614517 0 0 1.36329,0.57812 A 111.94019,70.940858 61.614517 0 1 93.503906,7.4785156 Z"
       transform="matrix(0.17902642,0,0,0.17902642,1.9768836,263.04811)"
       id="path897"
       inkscape:connector-curvature="0" />
    <ellipse
       ry="0.49041963"
       rx="0.47893035"
       transform="matrix(0.867456,0.49751391,0,1,0,0)"
       style="opacity:1;fill:#000000;fill-opacity:1;stroke:none;stroke-width:0.00453898;stroke-opacity:1"
       id="ellipse942"
       cx="28.814436"
       cy="251.9183" />
    <ellipse
       cy="247.41808"
       cx="36.744713"
       id="ellipse944"
       style="opacity:1;fill:#000000;fill-opacity:1;stroke:none;stroke-width:0.00453898;stroke-opacity:1"
       transform="matrix(0.867456,0.49751391,0,1,0,0)"
       rx="0.47893035"
       ry="0.49041963" />
    <ellipse
       ry="0.49041963"
       rx="0.47893035"
       transform="matrix(0.867456,0.49751391,0,1,0,0)"
       style="opacity:1;fill:#000000;fill-opacity:1;stroke:none;stroke-width:0.00453898;stroke-opacity:1"
       id="ellipse946"
       cx="39.413555"
       cy="251.94481" />
    <ellipse
       cy="256.96204"
       cx="31.635788"
       id="ellipse948"
       style="opacity:1;fill:#000000;fill-opacity:1;stroke:none;stroke-width:0.00453898;stroke-opacity:1"
       transform="matrix(0.867456,0.49751391,0,1,0,0)"
       rx="0.47893035"
       ry="0.49041963" />
    <ellipse
       cy="249.41098"
       cx="32.970207"
       id="ellipse950"
       style="opacity:1;fill:#000000;fill-opacity:1;stroke:none;stroke-width:0.00453898;stroke-opacity:1"
       transform="matrix(0.867456,0.49751391,0,1,0,0)"
       rx="0.47893035"
       ry="0.49041963" />
    <ellipse
       ry="0.49041963"
       rx="0.47893035"
       transform="matrix(0.867456,0.49751391,0,1,0,0)"
       style="opacity:1;fill:#000000;fill-opacity:1;stroke:none;stroke-width:0.00453898;stroke-opacity:1"
       id="ellipse952"
       cx="30.186987"
       cy="254.43906" />
    <ellipse
       cy="254.30923"
       cx="35.905933"
       id="ellipse954"
       style="opacity:1;fill:#000000;fill-opacity:1;stroke:none;stroke-width:0.00453898;stroke-opacity:1"
       transform="matrix(0.867456,0.49751391,0,1,0,0)"
       rx="0.47893035"
       ry="0.49041963" />
    <ellipse
       ry="0.49041963"
       rx="0.47893035"
       transform="matrix(0.867456,0.49751391,0,1,0,0)"
       style="opacity:1;fill:#000000;fill-opacity:1;stroke:none;stroke-width:0.00453898;stroke-opacity:1"
       id="ellipse956"
       cx="38.155388"
       cy="249.86082" />
    <ellipse
       ry="0.49041963"
       rx="0.47893035"
       transform="matrix(0.867456,0.49751391,0,1,0,0)"
       style="opacity:1;fill:#000000;fill-opacity:1;stroke:none;stroke-width:0.00453898;stroke-opacity:1"
       id="ellipse958"
       cx="34.533386"
       cy="252.05309" />
    <rect
       style="opacity:1;fill:#000000;fill-opacity:1;stroke:none;stroke-width:0.26458332;stroke-opacity:1"
       id="rect979"
       width="4.3030396"
       height="51.075203"
       x="201.86208"
       y="153.68985"
       ry="2.1515198"
       transform="rotate(42.868033)" />
    <rect
       transform="matrix(-0.73292258,0.68031206,0.68031206,0.73292258,0,0)"
       ry="2.1515198"
       y="191.23706"
       x="161.41124"
       height="51.075203"
       width="4.3030396"
       id="rect981"
       style="opacity:1;fill:#000000;fill-opacity:1;stroke:none;stroke-width:0.26458332;stroke-opacity:1" />
  </g>
</svg>
